/* XPM */
static char *New_Piskel_2_png1691900518[] = {
/* columns rows colors chars-per-pixel */
"64 64 2 1 ",
"  c None",
". c #FFEC00",
/* pixels */
"                                                                ",
"                                                                ",
"                                                                ",
"                                                                ",
"                                                                ",
"                                                                ",
"                                                                ",
"                                                                ",
"                        ........................                ",
"                        ........................                ",
"                        ........................                ",
"                        ........................                ",
"                        ........................                ",
"                        ........................                ",
"                        ........................                ",
"                        ........................                ",
"                ........                                        ",
"                ........                                        ",
"                ........                                        ",
"                ........                                        ",
"                ........                                        ",
"                ........                                        ",
"                ........                                        ",
"                ........                                        ",
"                ........                                        ",
"                ........                                        ",
"                ........                                        ",
"                ........                                        ",
"                ........                                        ",
"                ........                                        ",
"                ........                                        ",
"                ........                                        ",
"                ........                                        ",
"                ........                                        ",
"                ........                                        ",
"                ........                                        ",
"                ........                                        ",
"                ........                                        ",
"                ........                                        ",
"                ........                                        ",
"                ........                                        ",
"                ........                                        ",
"                ........                                        ",
"                ........                                        ",
"                ........                                        ",
"                ........                                        ",
"                ........                                        ",
"                ........                                        ",
"                        ........................                ",
"                        ........................                ",
"                        ........................                ",
"                        ........................                ",
"                        ........................                ",
"                        ........................                ",
"                        ........................                ",
"                        ........................                ",
"                                                                ",
"                                                                ",
"                                                                ",
"                                                                ",
"                                                                ",
"                                                                ",
"                                                                ",
"                                                                "
};
