/* XPM */
static char *New_Piskel_3_png1691900519[] = {
/* columns rows colors chars-per-pixel */
"64 64 2 1 ",
"  c None",
". c #0FFF00",
/* pixels */
"                                                                ",
"                                                                ",
"                                                                ",
"                                                                ",
"                                                                ",
"                                                                ",
"                                                                ",
"                                                                ",
"                ................................                ",
"                ................................                ",
"                ................................                ",
"                ................................                ",
"                ................................                ",
"                ................................                ",
"                ................................                ",
"                ................................                ",
"                ........                                        ",
"                ........                                        ",
"                ........                                        ",
"                ........                                        ",
"                ........                                        ",
"                ........                                        ",
"                ........                                        ",
"                ........                                        ",
"                ........................                        ",
"                ........................                        ",
"                ........................                        ",
"                ........................                        ",
"                ........................                        ",
"                ........................                        ",
"                ........................                        ",
"                ........................                        ",
"                ........                                        ",
"                ........                                        ",
"                ........                                        ",
"                ........                                        ",
"                ........                                        ",
"                ........                                        ",
"                ........                                        ",
"                ........                                        ",
"                ................................                ",
"                ................................                ",
"                ................................                ",
"                ................................                ",
"                ................................                ",
"                ................................                ",
"                ................................                ",
"                ................................                ",
"                                                                ",
"                                                                ",
"                                                                ",
"                                                                ",
"                                                                ",
"                                                                ",
"                                                                ",
"                                                                ",
"                                                                ",
"                                                                ",
"                                                                ",
"                                                                ",
"                                                                ",
"                                                                ",
"                                                                ",
"                                                                "
};
